<?xml version="1.0" standalone="no"?>
<!DOCTYPE svg PUBLIC "-//W3C//DTD SVG 20010904//EN"
 "http://www.w3.org/TR/2001/REC-SVG-20010904/DTD/svg10.dtd">
<svg version="1.0" xmlns="http://www.w3.org/2000/svg"
 width="640.000000pt" height="200.000000pt" viewBox="0 0 640.000000 200.000000"
 preserveAspectRatio="xMidYMid meet">

<g transform="translate(0.000000,200.000000) scale(0.100000,-0.100000)"
fill="#ff171e" stroke="none">
<path d="M0 1000 l0 -1000 3200 0 3200 0 0 1000 0 1000 -3200 0 -3200 0 0
-1000z m6180 655 l0 -25 -1420 0 -1420 0 0 25 0 25 1420 0 1420 0 0 -25z
m-5602 -217 c6 -35 23 -143 39 -242 31 -205 27 -210 74 92 l33 213 116 -3 115
-3 0 -412 c0 -226 2 -410 4 -407 2 2 32 187 65 411 l61 408 121 3 120 3 61
-403 61 -403 1 403 1 404 138 -4 c158 -4 192 -16 259 -92 l39 -45 -7 52 c-14
95 -21 88 83 85 l92 -3 38 -270 c20 -148 38 -274 38 -280 2 -9 59 377 75 503
l6 52 252 -2 252 -3 0 -85 0 -85 -77 -3 -78 -3 0 -109 0 -109 78 -3 77 -3 3
-87 3 -88 -81 0 -80 0 0 -110 0 -109 78 -3 77 -3 0 -90 0 -90 -167 -3 -168 -2
-1 417 c0 251 -4 408 -9 393 -5 -14 -20 -99 -34 -190 -54 -349 -96 -601 -101
-610 -4 -6 -51 -10 -105 -10 -85 0 -99 2 -104 18 -2 9 -24 135 -48 280 -23
144 -46 262 -50 262 -5 0 -8 -7 -8 -15 0 -25 -46 -108 -73 -133 l-25 -23 54
-182 c30 -100 54 -188 54 -195 0 -10 -21 -12 -87 -10 l-86 3 -43 158 c-23 87
-45 161 -48 164 -3 3 -12 3 -21 0 -13 -5 -15 -31 -15 -167 l0 -160 -167 2
-168 3 -8 55 c-16 108 -10 100 -82 100 l-64 0 -6 -37 c-4 -21 -10 -56 -14 -78
l-7 -40 -169 0 -170 0 -3 210 -4 210 -34 -200 c-19 -110 -36 -206 -39 -212 -4
-11 -94 -20 -96 -10 0 1 -17 99 -39 217 l-38 215 -1 -217 -1 -218 -90 0 -90 0
0 495 0 495 114 0 114 0 10 -62z m2342 -338 l0 -400 75 0 75 0 0 -95 0 -95
-162 2 -163 3 -3 493 -2 492 90 0 90 0 0 -400z m541 78 c1 -450 12 -513 89
-513 77 0 88 63 89 513 l1 293 53 -3 52 -3 0 -370 c0 -413 -4 -443 -68 -526
-46 -61 -81 -84 -127 -84 -46 0 -81 23 -127 84 -62 81 -66 107 -71 509 -2 200
-1 370 2 378 4 10 21 14 56 14 l50 0 1 -292z m679 255 c16 -59 230 -910 230
-917 0 -3 -26 -6 -59 -6 l-59 0 -29 118 -29 117 -102 3 -101 3 -15 -53 c-8
-29 -23 -83 -32 -120 l-16 -68 -59 0 c-33 0 -59 4 -59 10 0 15 230 932 236
942 3 4 23 8 44 8 37 0 40 -2 50 -37z m398 -360 l2 -393 90 0 90 0 0 -85 0
-85 -145 0 -145 0 0 481 0 480 53 -3 52 -3 3 -392z m542 315 c0 -79 -5 -97
-108 -393 l-108 -310 113 -3 113 -3 0 -84 0 -85 -180 0 -180 0 0 74 c0 67 9
98 109 387 l108 314 -103 3 -104 3 0 83 c0 45 3 86 7 89 3 4 80 7 170 7 l163
0 0 -82z m390 -8 l0 -90 -100 0 -100 0 0 -110 0 -110 95 0 95 0 0 -85 0 -85
-95 0 -95 0 0 -110 0 -110 100 0 100 0 0 -85 0 -85 -155 0 -155 0 0 473 c0
261 3 477 7 480 3 4 73 7 155 7 l148 0 0 -90z m245 78 c3 -7 38 -170 78 -363
l74 -350 11 50 c7 28 41 187 77 353 36 167 67 308 71 313 3 5 36 9 75 9 l69 0
0 -480 0 -480 -55 0 -55 0 -2 335 -3 335 -69 -335 -69 -335 -48 0 -48 0 -12
58 c-6 31 -38 181 -70 332 l-57 275 -1 -332 -1 -333 -55 0 -55 0 0 480 0 480
70 0 c47 0 72 -4 75 -12z m465 -1098 c0 -20 -7 -20 -1420 -20 -1413 0 -1420 0
-1420 20 0 20 7 20 1420 20 1413 0 1420 0 1420 -20z"/>
<path d="M1630 1165 c0 -92 4 -155 10 -155 5 0 21 5 35 12 55 25 87 125 66
205 -12 45 -60 93 -92 93 -18 0 -19 -9 -19 -155z"/>
<path d="M1187 1052 c-10 -86 -21 -172 -24 -189 l-5 -33 46 0 c37 0 46 3 46
18 0 20 -41 356 -44 359 -1 1 -10 -69 -19 -155z"/>
<path d="M4061 1077 c-12 -62 -25 -120 -27 -129 -5 -16 2 -18 54 -18 l60 0
-27 124 c-14 68 -28 127 -32 130 -3 3 -15 -45 -28 -107z"/>
</g>
</svg>
